<svg width="100" height="109" viewBox="0 0 100 109" fill="none" xmlns="http://www.w3.org/2000/svg">
<path d="M19.039 69.9309C22.609 78.5309 32.089 87.9309 41.169 82.9109C48.679 78.7509 45.129 71.2209 42.439 67.0709C39.069 61.8509 35.939 57.3009 31.139 53.2009C19.699 43.4409 8.05898 55.2809 3.91898 63.7209C0.968984 69.7309 -0.221016 76.1409 2.61898 83.7109C7.01898 95.4709 18.559 105.911 36.049 107.651C43.969 108.441 82.669 111.811 79.849 61.5309C87.699 54.0909 104.899 37.8609 95.489 29.6309C84.809 20.3009 67.279 46.8509 67.279 46.8509C67.279 46.8509 86.409 15.1509 72.249 10.7209C59.029 6.60086 54.299 26.0709 50.079 39.8409C51.679 25.6709 58.039 1.16086 41.959 1.00086C26.839 0.850864 30.019 20.2609 31.459 39.2009C29.389 33.1609 26.429 24.8909 24.609 19.7809C22.109 12.7809 15.699 4.34086 7.73898 7.84086C2.14898 10.3009 0.738984 15.1709 1.53898 20.7409C3.09898 31.6909 7.89898 42.2209 12.509 52.1009" stroke="#0061FE" stroke-width="2" stroke-miterlimit="10" stroke-linecap="round" stroke-linejoin="round"/>
<path d="M64.0894 24.0812C66.4794 25.2012 67.2794 25.3612 69.1894 26.1512M85.5494 37.3012C87.3794 39.2012 88.0594 39.6412 89.5494 41.0712M38.7794 17.2412C41.1694 17.2412 42.4394 17.2412 44.0294 17.4012M15.2194 22.3312C14.3994 22.5412 12.2194 23.2512 11.3994 23.4512M32.0994 70.2512C29.1394 74.3312 35.3594 80.4512 38.9694 76.4812C42.7694 72.3012 36.0494 64.8212 32.1094 70.2512H32.0994Z" stroke="#0061FE" stroke-width="2" stroke-miterlimit="10" stroke-linecap="round" stroke-linejoin="round"/>
</svg>
