<svg width="88" height="109" viewBox="0 0 88 109" fill="none" xmlns="http://www.w3.org/2000/svg">
<path d="M67.271 46.8418C75.709 39.5218 86.529 44.9318 86.371 52.4148C86.061 67.0788 63.771 82.6558 55.653 75.0148C45.907 65.8468 58.991 54.1628 67.271 46.8418ZM67.271 46.8418C74.591 34.9038 84.108 15.2638 72.241 10.7218C59.311 5.77584 54.297 26.0698 50.081 39.8368C51.671 25.6688 58.041 1.15784 41.963 1.00084C26.84 0.852841 30.025 20.2588 31.457 39.2018C29.39 33.1518 26.434 24.8858 24.614 19.7818C22.112 12.7748 15.7 4.34184 7.74002 7.84184C2.15302 10.3018 0.735025 15.1618 1.53202 20.7348C3.09802 31.6848 7.90703 42.2088 12.515 52.0938" stroke="#0061FE" stroke-width="2" stroke-miterlimit="10" stroke-linecap="round" stroke-linejoin="round"/>
<path d="M77.4555 69.2846C76.9785 86.4756 68.8605 96.6606 58.6755 102.712C51.5355 106.952 43.9675 108.423 36.0405 107.635C18.5635 105.897 7.02251 95.4526 2.61451 83.6966C-0.220486 76.1276 0.971514 69.7196 3.91951 63.7126C8.05951 55.2746 19.7015 43.4366 31.1325 53.1926C35.9365 57.2946 39.0645 61.8316 42.4355 67.0556C45.1195 71.2096 48.6765 78.7396 41.1605 82.8946C32.0885 87.9086 22.6045 78.5206 19.0375 69.9206" stroke="#0061FE" stroke-width="2" stroke-miterlimit="10" stroke-linecap="round" stroke-linejoin="round"/>
<path d="M64.0864 24.0783C66.4744 25.1913 67.2714 25.3533 69.1814 26.1453M38.7774 17.2363C41.1654 17.2363 42.4404 17.2363 44.0304 17.3933M15.2204 22.3303C14.4044 22.5363 12.2174 23.2423 11.4004 23.4433M61.3254 62.6663C57.6294 66.1233 60.8384 72.2023 65.6804 69.6813C68.5214 68.2013 70.1694 65.0443 68.3404 62.3083C67.0034 60.3083 64.1244 60.1543 61.7844 62.2553C61.6364 62.3893 61.4594 62.5423 61.3254 62.6663ZM32.1064 70.2393C29.1464 74.3223 35.3584 80.4293 38.9684 76.4663C42.7744 72.2933 36.0454 64.8063 32.1064 70.2393Z" stroke="#0061FE" stroke-width="2" stroke-miterlimit="10" stroke-linecap="round" stroke-linejoin="round"/>
</svg>
