<svg width="34" height="26" viewBox="0 0 34 26" fill="none" xmlns="http://www.w3.org/2000/svg">
<path d="M0 1.6754C0 0.7501 0.750101 0 1.6754 0H32.0044C32.9297 0 33.6798 0.750101 33.6798 1.6754V6.74455C33.6798 7.66985 32.9297 8.41995 32.0044 8.41995H1.6754C0.750099 8.41995 0 7.66985 0 6.74455V1.6754Z" fill="#FF9933"/>
<path d="M0 10.0953C0 9.17002 0.750101 8.41992 1.6754 8.41992H32.0044C32.9297 8.41992 33.6798 9.17002 33.6798 10.0953V15.1645C33.6798 16.0898 32.9297 16.8399 32.0044 16.8399H1.6754C0.750099 16.8399 0 16.0898 0 15.1645V10.0953Z" fill="white"/>
<path d="M0 18.5152C0 17.5899 0.750101 16.8398 1.6754 16.8398H32.0044C32.9297 16.8398 33.6798 17.5899 33.6798 18.5152V23.5844C33.6798 24.5097 32.9297 25.2598 32.0044 25.2598H1.6754C0.750099 25.2598 0 24.5097 0 23.5844V18.5152Z" fill="#128807"/>
<path d="M16.8387 15.9977C18.6988 15.9977 20.2067 14.4898 20.2067 12.6297C20.2067 10.7696 18.6988 9.26172 16.8387 9.26172C14.9786 9.26172 13.4707 10.7696 13.4707 12.6297C13.4707 14.4898 14.9786 15.9977 16.8387 15.9977Z" fill="#000088"/>
<path d="M16.8396 15.5776C18.4671 15.5776 19.7865 14.2581 19.7865 12.6306C19.7865 11.003 18.4671 9.68359 16.8396 9.68359C15.212 9.68359 13.8926 11.003 13.8926 12.6306C13.8926 14.2581 15.212 15.5776 16.8396 15.5776Z" fill="white"/>
<path d="M16.8394 13.2198C17.1649 13.2198 17.4288 12.9559 17.4288 12.6304C17.4288 12.3049 17.1649 12.041 16.8394 12.041C16.5139 12.041 16.25 12.3049 16.25 12.6304C16.25 12.9559 16.5139 13.2198 16.8394 13.2198Z" fill="#000088"/>
<path d="M19.7404 13.161C19.8211 13.1716 19.8951 13.1148 19.9058 13.0342C19.9164 12.9535 19.8596 12.8795 19.7789 12.8688C19.6982 12.8582 19.6242 12.915 19.6136 12.9957C19.603 13.0764 19.6598 13.1504 19.7404 13.161Z" fill="#000088"/>
<path d="M16.8374 15.578L16.9379 13.8187C16.9382 13.8127 16.9381 13.8068 16.9373 13.8009C16.9232 13.6827 16.7516 13.6827 16.7374 13.8009C16.7367 13.8068 16.7365 13.8127 16.7368 13.8187L16.8374 15.578Z" fill="#000088"/>
<path d="M19.5038 13.8941C19.579 13.9252 19.6652 13.8895 19.6963 13.8143C19.7275 13.7392 19.6918 13.653 19.6166 13.6218C19.5414 13.5907 19.4552 13.6264 19.4241 13.7016C19.3929 13.7767 19.4286 13.8629 19.5038 13.8941Z" fill="#000088"/>
<path d="M16.0744 15.4771L16.6268 13.8038C16.6287 13.7981 16.63 13.7923 16.6309 13.7865C16.6478 13.6686 16.4821 13.6242 16.4377 13.7347C16.4355 13.7402 16.4338 13.7459 16.4326 13.7517L16.0744 15.4771Z" fill="#000088"/>
<path d="M19.0918 14.5423C19.1564 14.5918 19.2489 14.5796 19.2984 14.5151C19.3479 14.4505 19.3358 14.358 19.2712 14.3085C19.2066 14.2589 19.1141 14.2711 19.0646 14.3356C19.0151 14.4002 19.0272 14.4927 19.0918 14.5423Z" fill="#000088"/>
<path d="M15.3683 15.1831L16.3351 13.7097C16.3383 13.7048 16.3411 13.6996 16.3434 13.6941C16.3903 13.5846 16.2417 13.4988 16.1703 13.5941C16.1667 13.5989 16.1636 13.6039 16.1609 13.6092L15.3683 15.1831Z" fill="#000088"/>
<path d="M18.5161 15.058C18.5656 15.1226 18.6581 15.1348 18.7227 15.0852C18.7872 15.0357 18.7994 14.9432 18.7499 14.8786C18.7003 14.8141 18.6078 14.8019 18.5433 14.8514C18.4787 14.901 18.4665 14.9935 18.5161 15.058Z" fill="#000088"/>
<path d="M14.7551 14.715L16.0702 13.5421C16.0746 13.5381 16.0787 13.5338 16.0823 13.5291C16.1559 13.4355 16.0346 13.3141 15.9409 13.3877C15.9363 13.3914 15.9319 13.3955 15.928 13.3999L14.7551 14.715Z" fill="#000088"/>
<path d="M17.833 15.411C17.8641 15.4862 17.9503 15.5219 18.0255 15.4908C18.1007 15.4596 18.1364 15.3734 18.1052 15.2982C18.0741 15.2231 17.9879 15.1874 17.9127 15.2185C17.8375 15.2496 17.8018 15.3358 17.833 15.411Z" fill="#000088"/>
<path d="M14.29 14.1045L15.8639 13.3119C15.8692 13.3093 15.8742 13.3061 15.879 13.3026C15.9743 13.2312 15.8885 13.0826 15.779 13.1294C15.7736 13.1317 15.7683 13.1345 15.7634 13.1378L14.29 14.1045Z" fill="#000088"/>
<path d="M17.0864 15.5703C17.0971 15.651 17.1711 15.7078 17.2518 15.6972C17.3324 15.6865 17.3892 15.6125 17.3786 15.5318C17.368 15.4511 17.294 15.3944 17.2133 15.405C17.1326 15.4156 17.0758 15.4896 17.0864 15.5703Z" fill="#000088"/>
<path d="M13.999 13.3923L15.7244 13.0341C15.7302 13.0329 15.7359 13.0311 15.7414 13.0289C15.852 12.9846 15.8076 12.8189 15.6897 12.8358C15.6838 12.8366 15.678 12.838 15.6724 12.8399L13.999 13.3923Z" fill="#000088"/>
<path d="M16.3097 15.5305C16.2991 15.6112 16.3559 15.6852 16.4365 15.6958C16.5172 15.7064 16.5912 15.6496 16.6019 15.5689C16.6125 15.4883 16.5557 15.4142 16.475 15.4036C16.3943 15.393 16.3203 15.4498 16.3097 15.5305Z" fill="#000088"/>
<path d="M13.8937 12.6284L15.653 12.7289C15.6589 12.7293 15.6649 12.7291 15.6708 12.7284C15.789 12.7142 15.789 12.5426 15.6708 12.5284C15.6649 12.5277 15.6589 12.5275 15.653 12.5279L13.8937 12.6284Z" fill="#000088"/>
<path d="M15.5776 15.2948C15.5465 15.37 15.5822 15.4562 15.6573 15.4874C15.7325 15.5185 15.8187 15.4828 15.8499 15.4076C15.881 15.3324 15.8453 15.2462 15.7701 15.2151C15.6949 15.184 15.6087 15.2197 15.5776 15.2948Z" fill="#000088"/>
<path d="M13.9936 11.8664L15.6669 12.4188C15.6726 12.4207 15.6784 12.422 15.6842 12.4229C15.8021 12.4398 15.8465 12.274 15.736 12.2297C15.7305 12.2275 15.7248 12.2258 15.719 12.2246L13.9936 11.8664Z" fill="#000088"/>
<path d="M14.9285 14.875C14.8789 14.9396 14.8911 15.0321 14.9557 15.0816C15.0202 15.1311 15.1127 15.119 15.1623 15.0544C15.2118 14.9898 15.1996 14.8973 15.1351 14.8478C15.0705 14.7983 14.978 14.8104 14.9285 14.875Z" fill="#000088"/>
<path d="M14.2867 11.1535L15.76 12.1202C15.7649 12.1235 15.7702 12.1263 15.7756 12.1286C15.8851 12.1754 15.9709 12.0269 15.8756 11.9554C15.8709 11.9519 15.8658 11.9488 15.8605 11.9461L14.2867 11.1535Z" fill="#000088"/>
<path d="M14.4107 14.3022C14.3462 14.3517 14.334 14.4442 14.3835 14.5088C14.4331 14.5734 14.5256 14.5855 14.5901 14.536C14.6547 14.4864 14.6669 14.394 14.6173 14.3294C14.5678 14.2648 14.4753 14.2526 14.4107 14.3022Z" fill="#000088"/>
<path d="M14.7528 10.5412L15.9257 11.8563C15.9297 11.8607 15.934 11.8648 15.9387 11.8684C16.0323 11.942 16.1536 11.8207 16.08 11.7271C16.0764 11.7224 16.0723 11.7181 16.0679 11.7141L14.7528 10.5412Z" fill="#000088"/>
<path d="M14.0577 13.6201C13.9825 13.6512 13.9468 13.7374 13.978 13.8126C14.0091 13.8878 14.0953 13.9235 14.1705 13.8923C14.2457 13.8612 14.2814 13.775 14.2503 13.6998C14.2191 13.6246 14.1329 13.5889 14.0577 13.6201Z" fill="#000088"/>
<path d="M15.3652 10.0762L16.1578 11.65C16.1605 11.6553 16.1636 11.6604 16.1672 11.6651C16.2386 11.7604 16.3872 11.6747 16.3403 11.5651C16.338 11.5597 16.3352 11.5545 16.3319 11.5495L15.3652 10.0762Z" fill="#000088"/>
<path d="M13.8975 12.8667C13.8168 12.8773 13.76 12.9513 13.7706 13.032C13.7812 13.1127 13.8553 13.1695 13.9359 13.1589C14.0166 13.1483 14.0734 13.0742 14.0628 12.9936C14.0522 12.9129 13.9782 12.8561 13.8975 12.8667Z" fill="#000088"/>
<path d="M16.0745 9.78127L16.4327 11.5066C16.4339 11.5124 16.4356 11.5181 16.4379 11.5236C16.4822 11.6342 16.6479 11.5898 16.631 11.4719C16.6302 11.466 16.6288 11.4602 16.6269 11.4546L16.0745 9.78127Z" fill="#000088"/>
<path d="M13.9373 12.0987C13.8566 12.0881 13.7826 12.1449 13.772 12.2256C13.7614 12.3063 13.8182 12.3803 13.8988 12.3909C13.9795 12.4015 14.0535 12.3448 14.0642 12.2641C14.0748 12.1834 14.018 12.1094 13.9373 12.0987Z" fill="#000088"/>
<path d="M16.8404 9.68181L16.7398 11.4411C16.7395 11.447 16.7397 11.453 16.7404 11.4588C16.7546 11.5771 16.9262 11.5771 16.9403 11.4588C16.9411 11.453 16.9412 11.447 16.9409 11.4411L16.8404 9.68181Z" fill="#000088"/>
<path d="M14.1759 11.3657C14.1007 11.3345 14.0145 11.3702 13.9833 11.4454C13.9522 11.5206 13.9879 11.6068 14.0631 11.6379C14.1383 11.6691 14.2245 11.6334 14.2556 11.5582C14.2867 11.483 14.251 11.3968 14.1759 11.3657Z" fill="#000088"/>
<path d="M17.6053 9.78268L17.0529 11.456C17.051 11.4616 17.0497 11.4674 17.0488 11.4733C17.0319 11.5912 17.1976 11.6356 17.242 11.525C17.2442 11.5195 17.2459 11.5139 17.2471 11.508L17.6053 9.78268Z" fill="#000088"/>
<path d="M14.5918 10.7165C14.5272 10.667 14.4347 10.6792 14.3852 10.7437C14.3357 10.8083 14.3478 10.9008 14.4124 10.9503C14.477 10.9999 14.5695 10.9877 14.619 10.9231C14.6685 10.8586 14.6564 10.7661 14.5918 10.7165Z" fill="#000088"/>
<path d="M18.3133 10.0757L17.3466 11.549C17.3433 11.554 17.3405 11.5592 17.3382 11.5647C17.2913 11.6742 17.4399 11.76 17.5114 11.6647C17.5149 11.6599 17.518 11.6549 17.5207 11.6496L18.3133 10.0757Z" fill="#000088"/>
<path d="M15.1636 10.2017C15.1141 10.1372 15.0216 10.125 14.957 10.1745C14.8925 10.2241 14.8803 10.3166 14.9298 10.3811C14.9794 10.4457 15.0719 10.4579 15.1364 10.4083C15.201 10.3588 15.2132 10.2663 15.1636 10.2017Z" fill="#000088"/>
<path d="M18.9246 10.5448L17.6095 11.7177C17.6051 11.7217 17.601 11.726 17.5974 11.7306C17.5238 11.8243 17.6451 11.9456 17.7388 11.872C17.7434 11.8684 17.7478 11.8643 17.7517 11.8599L18.9246 10.5448Z" fill="#000088"/>
<path d="M15.8487 9.85265C15.8175 9.77747 15.7314 9.74177 15.6562 9.77291C15.581 9.80405 15.5453 9.89025 15.5764 9.96543C15.6076 10.0406 15.6938 10.0763 15.7689 10.0452C15.8441 10.014 15.8798 9.92784 15.8487 9.85265Z" fill="#000088"/>
<path d="M19.3936 11.1582L17.8197 11.9508C17.8144 11.9534 17.8094 11.9566 17.8046 11.9601C17.7093 12.0315 17.7951 12.1801 17.9046 12.1333C17.91 12.131 17.9153 12.1281 17.9202 12.1249L19.3936 11.1582Z" fill="#000088"/>
<path d="M16.5991 9.6924C16.5885 9.61172 16.5145 9.55492 16.4338 9.56554C16.3531 9.57617 16.2963 9.65018 16.3069 9.73086C16.3176 9.81155 16.3916 9.86834 16.4723 9.85772C16.5529 9.8471 16.6097 9.77308 16.5991 9.6924Z" fill="#000088"/>
<path d="M19.6845 11.8704L17.9592 12.2286C17.9534 12.2298 17.9477 12.2315 17.9422 12.2338C17.8316 12.2781 17.876 12.4438 17.9939 12.4269C17.9998 12.4261 18.0056 12.4247 18.0112 12.4228L19.6845 11.8704Z" fill="#000088"/>
<path d="M17.37 9.73124C17.3806 9.65056 17.3238 9.57655 17.2431 9.56592C17.1625 9.5553 17.0884 9.6121 17.0778 9.69278C17.0672 9.77346 17.124 9.84748 17.2047 9.8581C17.2854 9.86872 17.3594 9.81193 17.37 9.73124Z" fill="#000088"/>
<path d="M19.786 12.6333L18.0267 12.5328C18.0208 12.5325 18.0148 12.5327 18.0089 12.5334C17.8907 12.5475 17.8907 12.7191 18.0089 12.7333C18.0148 12.734 18.0208 12.7342 18.0267 12.7339L19.786 12.6333Z" fill="#000088"/>
<path d="M18.104 9.96688C18.1352 9.89169 18.0995 9.8055 18.0243 9.77436C17.9491 9.74321 17.8629 9.77892 17.8318 9.8541C17.8006 9.92929 17.8363 10.0155 17.9115 10.0466C17.9867 10.0778 18.0729 10.0421 18.104 9.96688Z" fill="#000088"/>
<path d="M19.6861 13.3954L18.0127 12.8429C18.0071 12.841 18.0013 12.8397 17.9955 12.8388C17.8776 12.8219 17.8331 12.9877 17.9437 13.032C17.9492 13.0342 17.9549 13.0359 17.9607 13.0371L19.6861 13.3954Z" fill="#000088"/>
<path d="M18.7493 10.3828C18.7988 10.3183 18.7866 10.2258 18.7221 10.1762C18.6575 10.1267 18.565 10.1389 18.5155 10.2034C18.4659 10.268 18.4781 10.3605 18.5427 10.41C18.6072 10.4596 18.6997 10.4474 18.7493 10.3828Z" fill="#000088"/>
<path d="M19.3911 14.1043L17.9178 13.1376C17.9128 13.1343 17.9076 13.1315 17.9021 13.1292C17.7926 13.0824 17.7068 13.231 17.8021 13.3024C17.8069 13.3059 17.8119 13.3091 17.8172 13.3117L19.3911 14.1043Z" fill="#000088"/>
<path d="M19.2709 10.9546C19.3355 10.9051 19.3476 10.8126 19.2981 10.748C19.2486 10.6835 19.1561 10.6713 19.0915 10.7208C19.0269 10.7704 19.0148 10.8629 19.0643 10.9274C19.1138 10.992 19.2063 11.0042 19.2709 10.9546Z" fill="#000088"/>
<path d="M18.9288 14.7147L17.7559 13.3996C17.752 13.3951 17.7476 13.3911 17.743 13.3874C17.6493 13.3138 17.528 13.4351 17.6016 13.5288C17.6053 13.5335 17.6093 13.5378 17.6137 13.5417L18.9288 14.7147Z" fill="#000088"/>
<path d="M19.618 11.6397C19.6932 11.6086 19.7289 11.5224 19.6978 11.4472C19.6667 11.372 19.5805 11.3363 19.5053 11.3674C19.4301 11.3986 19.3944 11.4848 19.4255 11.56C19.4567 11.6351 19.5429 11.6708 19.618 11.6397Z" fill="#000088"/>
<path d="M18.3125 15.1836L17.5199 13.6097C17.5173 13.6044 17.5141 13.5994 17.5106 13.5947C17.4392 13.4993 17.2906 13.5851 17.3374 13.6946C17.3397 13.7001 17.3426 13.7053 17.3458 13.7103L18.3125 15.1836Z" fill="#000088"/>
<path d="M19.7803 12.395C19.8609 12.3844 19.9177 12.3104 19.9071 12.2297C19.8965 12.149 19.8225 12.0922 19.7418 12.1028C19.6611 12.1135 19.6043 12.1875 19.6149 12.2682C19.6256 12.3488 19.6996 12.4056 19.7803 12.395Z" fill="#000088"/>
<path d="M17.6013 15.4795L17.2431 13.7541C17.2418 13.7483 17.2401 13.7426 17.2379 13.7371C17.1936 13.6265 17.0279 13.671 17.0448 13.7889C17.0456 13.7947 17.047 13.8005 17.0488 13.8061L17.6013 15.4795Z" fill="#000088"/>
</svg>
