<svg width="128" height="112" viewBox="0 0 128 112" fill="none" xmlns="http://www.w3.org/2000/svg">
<path d="M38.4382 41.0743C44.6502 33.4963 56.4382 36.4943 53.7292 47.3883C59.9412 36.8113 74.7542 43.5983 68.6992 54.1753C73.4792 48.9653 80.0102 51.3333 81.6022 56.2253C83.2172 61.1853 79.5562 67.9873 77.2962 72.3633C75.0982 76.6213 72.8382 81.4903 66.9462 83.3853C61.5322 85.1233 56.5912 79.7523 57.8672 74.7033C50.3792 82.7553 40.4312 75.4283 43.3742 66.4953C36.2072 72.9693 28.2272 66.2583 29.6742 58.7603C31.1132 51.3383 35.7292 44.3903 38.4382 41.0743ZM38.4382 41.0743C39.5992 32.5583 41.1092 21.2753 38.6292 11.3053C36.5272 2.86532 28.7292 0.0323173 21.7142 3.41932C13.5522 7.35932 13.9062 15.8193 14.4272 23.9333C14.7752 29.3083 17.8912 46.9143 19.3252 52.7593" stroke="#0061FE" stroke-width="2" stroke-miterlimit="10" stroke-linecap="round" stroke-linejoin="round"/>
<path d="M14.8661 76.5972C17.2551 83.5462 23.3051 89.1922 29.0431 88.2822C37.0041 87.0182 37.1191 80.8082 34.6151 74.7022C32.4981 69.5452 28.7331 60.0822 24.5801 56.0742C11.8981 43.8302 -0.716926 71.0182 2.70007 80.9602C6.68507 92.5452 15.0331 100.195 25.5791 106.068C46.2031 117.549 68.2071 102.184 74.9741 81.9592C75.4901 80.4192 77.3051 74.2342 78.2611 70.7622M25.0591 23.0752H30.7931" stroke="#0061FE" stroke-width="2" stroke-miterlimit="10" stroke-linecap="round" stroke-linejoin="round"/>
<path d="M31.905 69.0192C28.881 69.1752 25.851 71.3872 26.649 75.9672C27.27 79.5392 31.435 81.3322 35.893 79.1202M33.814 61.2872C38.149 69.2462 48.277 59.0662 40.614 54.8832C36.362 52.5732 31.996 57.9432 33.814 61.2872ZM55.096 63.0542C50.106 59.8392 44.979 67.1632 48.643 70.7782C53.442 75.4992 61.353 67.0882 55.096 63.0542ZM66.589 70.1952C60.987 70.3252 61.139 78.2012 66.313 78.1282C71.435 78.0552 72.021 70.0712 66.589 70.1952Z" stroke="#0061FE" stroke-width="2" stroke-miterlimit="10" stroke-linecap="round" stroke-linejoin="round"/>
</svg>
