<svg width="85" height="109" viewBox="0 0 85 109" fill="none" xmlns="http://www.w3.org/2000/svg">
<path d="M55.3925 40.2799C66.9345 30.9929 79.9895 45.7959 70.1195 55.3459C76.0075 51.6829 81.9805 54.8489 83.1695 59.6429C84.6495 65.6079 81.5795 71.1029 76.0125 75.3679C71.7245 78.6529 63.9065 83.0899 58.0235 80.6539C51.4725 77.9419 51.6585 71.5809 54.9915 67.5699C49.7435 69.8289 43.8035 67.4989 41.7885 62.5089C38.4455 54.2289 46.2435 47.5429 55.3165 40.3799C59.9345 31.7849 63.6255 23.6389 64.6285 12.2069C65.6645 0.426859 51.0175 -2.59614 44.9675 5.67886C40.1735 12.2399 37.1695 25.7349 36.0525 37.8299C34.3045 26.2119 30.2455 -5.93914 13.0555 2.65686C3.7815 7.29286 7.6835 19.7089 9.8035 27.1479C10.5005 29.5979 16.1595 45.9529 18.3895 48.9759" stroke="#0061FE" stroke-width="2" stroke-miterlimit="10" stroke-linecap="round" stroke-linejoin="round"/>
<path d="M74.2604 76.6714C71.3954 97.8394 58.3444 110.894 32.6014 107.084C18.4524 104.988 5.35439 94.6744 1.70639 80.7544C-1.55061 68.3134 6.63939 47.0834 22.4734 49.2234C32.3864 50.5634 44.7734 63.5384 46.7984 72.8314C50.8614 91.4734 27.1434 92.4284 18.2284 67.5974M16.1604 19.0494C18.0704 18.7294 20.6154 17.9554 22.8454 16.9814M48.4744 18.2564C50.8624 18.8914 53.5694 19.5314 55.1594 20.0084" stroke="#0061FE" stroke-width="2" stroke-miterlimit="10" stroke-linecap="round" stroke-linejoin="round"/>
<path d="M44.1765 67.1211C40.5135 65.3691 35.1035 68.7111 36.6935 73.8061C38.3835 79.2121 43.5365 80.4921 46.7215 77.4691M48.4075 56.4111C45.5175 60.5361 49.9875 64.2801 54.0475 61.6351C59.9585 57.7851 54.3235 50.7711 49.5105 55.1691C49.2145 55.4411 48.5935 56.1481 48.4075 56.4111ZM62.3885 67.5701C60.3885 68.5681 59.1705 69.9201 59.5235 72.0731C59.7955 73.7351 61.1665 75.2481 62.9375 75.3491C65.3925 75.4871 67.2545 74.2691 67.8515 72.4841C68.9405 69.2081 65.9365 65.7941 62.3885 67.5701Z" stroke="#0061FE" stroke-width="2" stroke-miterlimit="10" stroke-linecap="round" stroke-linejoin="round"/>
</svg>
